<svg width="206" height="45" viewBox="0 0 206 45" fill="none" xmlns="http://www.w3.org/2000/svg">
<path d="M9.13078 43V17.9348H0V15.6932C0 14.8554 0.335075 14.052 0.931513 13.4597C1.52795 12.8673 2.33689 12.5346 3.18038 12.5346H24.4171V17.9348H15.389V43H9.13078ZM28.6235 43V15.6932C28.6213 15.2776 28.7018 14.8656 28.8602 14.481C29.0186 14.0963 29.252 13.7465 29.5468 13.4516C29.8593 13.1511 30.2289 12.9153 30.6339 12.7579C31.039 12.6004 31.4716 12.5245 31.9064 12.5346H34.9842V43H28.6235ZM39.1905 43V15.6932C39.1905 14.8554 39.5256 14.052 40.122 13.4597C40.7185 12.8673 41.5274 12.5346 42.3709 12.5346H61.4532V17.731H45.4487V24.3539H57.3495V26.3917C57.3516 26.8073 57.2712 27.2193 57.1127 27.6039C56.9543 27.9886 56.721 28.3384 56.4262 28.6333C56.1365 28.9359 55.7856 29.174 55.3966 29.3321C55.0075 29.4901 54.5892 29.5645 54.1691 29.5504H45.4487V37.2941H61.4532V43H39.1905ZM54.6821 6.72674L58.2728 10.9043H53.6561L50.2706 7.2362L48.0135 9.6816L46.7824 10.5986C46.308 10.8404 45.7751 10.9462 45.2435 10.9043H42.5761L46.1669 6.72674C46.626 6.03615 47.2508 5.46975 47.985 5.07846C48.7193 4.68718 49.5399 4.48329 50.3732 4.48514C51.2189 4.49282 52.0506 4.70008 52.7998 5.08983C53.549 5.47957 54.1942 6.04064 54.6821 6.72674ZM66.8906 0.00193785L60.1195 7.03242H56.4262L59.6065 1.32653L60.3247 0.511394C60.7965 0.159019 61.3763 -0.0209206 61.9662 0.00193785H66.8906ZM65.6595 43V15.6932C65.6511 15.2672 65.7389 14.8447 65.9165 14.4568C66.094 14.0689 66.3568 13.7254 66.6855 13.4516C67.2921 12.8566 68.0922 12.4954 68.9425 12.4327H72.3281L84.7418 33.4222V12.4327H91V43H84.5366L71.9177 22.0104V43H65.6595Z" fill="white"/>
<path d="M105 43V15.3067C105.034 14.443 105.404 13.6269 106.03 13.0333C106.638 12.4299 107.441 12.0636 108.295 12H114.472L120.546 35.6633L126.621 12H135.99V43H130.121V17.9933L123.841 43H117.355L110.971 17.9933V43H105ZM140.211 43V15.3067C140.209 14.8852 140.29 14.4674 140.449 14.0773C140.608 13.6872 140.842 13.3324 141.138 13.0333C141.451 12.7286 141.822 12.4895 142.229 12.3298C142.635 12.1702 143.069 12.0932 143.506 12.1033H146.594V43H140.211ZM150.816 43V15.3067C150.813 14.8852 150.894 14.4674 151.053 14.0773C151.212 13.6872 151.446 13.3324 151.742 13.0333C152.361 12.4442 153.158 12.0803 154.007 12H157.405L169.965 33.2867V12H176.246V43H169.656L157.096 21.7133V43H150.816ZM180.467 43V15.3067C180.453 14.8835 180.528 14.4622 180.687 14.0703C180.847 13.6785 181.088 13.3251 181.393 13.0333C181.691 12.7364 182.045 12.5014 182.434 12.3418C182.822 12.1822 183.239 12.1012 183.659 12.1033H186.85V23.5733H199.514V12.1033H206V43H199.514V29.2567H186.85V43H180.467Z" fill="white"/>
</svg>
