<svg width="997" height="198" viewBox="0 0 997 198" fill="none" xmlns="http://www.w3.org/2000/svg">
<g clip-path="url(#clip0_254_2908)">
<path d="M111.325 76.9381C109.415 76.9381 107.584 76.1762 106.234 74.8199C104.884 73.4637 104.126 71.6243 104.126 69.7063V63.0005H61.8482C59.3792 62.9831 56.9312 63.4567 54.6452 64.3938C52.3592 65.331 50.2803 66.7132 48.5284 68.4609C46.7764 70.2086 45.386 72.2873 44.4372 74.5772C43.4884 76.867 42.9999 79.3228 43 81.8031V82.1976C42.9999 84.6779 43.4884 87.1337 44.4372 89.4235C45.386 91.7134 46.7764 93.792 48.5284 95.5398C50.2803 97.2875 52.3592 98.6697 54.6452 99.6069C56.9312 100.544 59.3792 101.018 61.8482 101H80.5654V120.197C80.5654 125.184 82.5374 129.967 86.0476 133.493C89.5578 137.019 94.3186 139 99.2827 139C104.247 139 109.008 137.019 112.518 133.493C116.028 129.967 118 125.184 118 120.197V76.9381H111.325ZM105.042 101V119.934C105.054 121.411 104.529 122.841 103.565 123.955C102.6 125.069 101.263 125.79 99.8063 125.983C98.9969 126.076 98.177 125.995 97.4009 125.746C96.6248 125.498 95.91 125.086 95.3039 124.539C94.6977 123.993 94.2139 123.323 93.8845 122.574C93.555 121.826 93.3874 121.016 93.3927 120.197V88.1145H61.8482C60.286 88.1145 58.7879 87.4911 57.6833 86.3815C56.5787 85.2718 55.9581 83.7668 55.9581 82.1976V81.8031C55.9923 80.2568 56.628 78.7853 57.7289 77.704C58.8298 76.6226 60.3084 76.0173 61.8482 76.0177H105.042V101Z" fill="#0A9DD9"/>
<path d="M78.9999 116.942V102H63.1774C62.6242 101.999 62.0913 102.195 61.6869 102.548C61.2825 102.901 61.0369 103.385 61 103.902C61 104.442 61.2294 104.96 61.6377 105.342C62.0461 105.725 62.5999 105.939 63.1774 105.939H74.7903V116.942C74.7651 117.227 74.8092 117.515 74.9192 117.782C75.0292 118.049 75.2024 118.29 75.4257 118.486C75.649 118.682 75.9167 118.828 76.2089 118.913C76.501 118.999 76.81 119.021 77.1128 118.98C77.6386 118.913 78.1206 118.67 78.468 118.295C78.8155 117.919 79.0046 117.438 78.9999 116.942Z" fill="#0A9DD9"/>
<path d="M142.464 150.133C142.714 149.964 142.893 149.701 142.965 149.396C143.037 149.092 142.996 148.77 142.851 148.496C142.464 147.814 141.82 147.951 141.175 148.224C140.383 148.496 139.642 148.911 138.984 149.451C133.995 153.156 128.686 156.353 123.128 158.999L122.226 159.545C121.968 159.818 121.839 160.227 122.355 160.363C123.652 161.108 125.04 161.658 126.48 162C127.138 162.001 127.776 161.76 128.284 161.318C131.722 159.113 135.036 156.699 138.21 154.089C139.757 152.861 141.046 151.497 142.464 150.133Z" fill="#0A9DD9"/>
<path d="M132.175 150.034C132.68 149.781 133.185 149.401 132.933 148.641C132.68 147.881 132.175 148.008 131.417 148.008L129.649 148.768L124.722 150.921L114.996 154.593C114.364 154.846 113.606 154.973 114.238 155.859C114.869 156.746 117.775 157.252 118.785 156.872L126.238 153.58C128.259 152.44 130.28 151.3 132.175 150.034Z" fill="#0A9DD9"/>
<path d="M153.268 146.019C151.984 146.244 150.814 146.854 149.937 147.754C147.672 149.614 145.54 151.597 143.142 153.456C139.672 156.332 135.926 158.904 131.95 161.141C131.55 161.513 130.884 161.637 131.017 162.257C131.151 162.877 131.817 162.753 132.35 163.001L136.214 163.868C136.739 164.019 137.296 164.041 137.833 163.932C138.37 163.824 138.867 163.588 139.278 163.249C144.913 159.369 149.898 154.732 154.067 149.49C154.538 148.812 154.855 148.053 155 147.258C154.867 146.391 154.467 145.895 153.268 146.019Z" fill="#0A9DD9"/>
<path d="M99 0C79.4197 0 60.279 5.80625 43.9986 16.6845C27.7181 27.5628 15.029 43.0244 7.53597 61.1143C0.0428957 79.2042 -1.91763 99.1098 1.9023 118.314C5.72224 137.518 15.1511 155.158 28.9965 169.004C42.8419 182.849 60.482 192.278 79.6861 196.098C98.8902 199.918 118.796 197.957 136.886 190.464C154.976 182.971 170.437 170.282 181.315 154.001C192.194 137.721 198 118.58 198 99C197.965 72.7542 187.524 47.5933 168.965 29.0347C150.407 10.4762 125.246 0.0346937 99 0ZM167.448 142.927C167.033 142.658 166.544 142.525 166.05 142.549C165.556 142.572 165.081 142.751 164.694 143.058C163.222 144.248 161.901 145.613 160.76 147.123C154.515 155.361 146.937 162.497 138.338 168.234C133.356 171.611 127.802 174.055 121.947 175.446C115.65 176.724 109.125 176.271 103.065 174.135C95.7911 171.907 89.1433 167.999 83.6583 162.727C83.1629 162.237 82.7628 161.659 82.4782 161.022C83.7894 161.022 84.5762 161.809 85.6252 162.203C92.0844 165.718 99.0186 168.28 106.212 169.808C114.401 171.431 122.877 170.797 130.732 167.972C131.257 167.71 132.044 167.579 132.044 166.923C132.044 166.268 131.126 166.268 130.732 166.136C121.554 162.989 112.244 160.498 103.196 157.089C97.923 155.129 92.8691 152.624 88.1166 149.615C78.2821 143.714 68.1855 143.845 57.6954 147.779C51.2702 150.139 45.7629 154.073 40.3868 158.269C37.6331 160.498 38.4199 160.498 36.1908 158.138C25.0048 146.395 17.4072 131.7 14.2928 115.784C12.612 106.968 12.3024 97.9451 13.3749 89.0344C14.8897 74.9775 19.9424 61.5339 28.061 49.9589C39.3481 33.6149 55.9287 21.6657 75.004 16.1285C88.4838 12.2607 102.702 11.7319 116.432 14.5875C130.162 17.4431 142.991 23.5975 153.811 32.5192C162.832 39.8408 170.242 48.9478 175.577 59.2689C180.287 68.2127 183.309 77.9471 184.494 87.9854C187.043 107.206 182.974 126.721 172.955 143.32C171.513 145.681 169.939 148.041 168.366 150.401L166.792 152.368C167.448 150.008 167.972 147.648 168.366 145.419C168.5 144.96 168.483 144.47 168.318 144.021C168.153 143.573 167.848 143.189 167.448 142.927Z" fill="#0A9DD9"/>
<path d="M81 61.4619H93.6783V43.8149C93.6659 42.3579 94.1853 40.9467 95.1385 39.8473C96.0917 38.7478 97.4129 38.036 98.8531 37.846C99.6532 37.7542 100.463 37.8337 101.231 38.0792C101.998 38.3248 102.704 38.7307 103.303 39.2703C103.902 39.8099 104.381 40.4709 104.706 41.2095C105.032 41.9482 105.198 42.7477 105.192 43.5554V69.1176C105.192 70.7695 105.847 72.3537 107.011 73.5218C108.176 74.6898 109.755 75.346 111.402 75.346H136.5C138.022 75.3456 139.483 75.943 140.571 77.0101C141.66 78.0773 142.288 79.5293 142.322 81.0554V81.4446C142.322 82.9933 141.708 84.4785 140.617 85.5735C139.525 86.6685 138.044 87.2837 136.5 87.2837H118.906V100H136.5C141.407 100 146.112 98.0451 149.581 94.5653C153.051 91.0854 155 86.3658 155 81.4446V81.0554C155 76.1342 153.051 71.4145 149.581 67.9347C146.112 64.4549 141.407 62.5 136.5 62.5H120.458C119.806 62.5 119.181 62.2403 118.72 61.7779C118.259 61.3155 118 60.6885 118 60.0346V43.5554C118 38.6342 116.051 33.9145 112.581 30.4347C109.112 26.9549 104.407 25 99.5 25C94.5935 25 89.8879 26.9549 86.4185 30.4347C82.9491 33.9145 81 38.6342 81 43.5554" fill="#BE1E2D"/>
<path d="M270.613 179V86.3169H237V78.0282C237 74.9306 238.234 71.9599 240.429 69.7695C242.625 67.5792 245.603 66.3487 248.708 66.3487H326.887V86.3169H293.652V179H270.613ZM342.372 179V78.0282C342.364 76.4915 342.66 74.9683 343.244 73.546C343.827 72.1236 344.686 70.8301 345.771 69.7395C346.922 68.6284 348.282 67.7565 349.773 67.1744C351.265 66.5923 352.857 66.3116 354.458 66.3487H365.788V179H342.372ZM381.273 179V78.0282C381.273 74.9306 382.506 71.9599 384.702 69.7695C386.898 67.5792 389.876 66.3487 392.981 66.3487H463.229V85.5634H404.311V110.053H448.122V117.588C448.13 119.125 447.834 120.648 447.25 122.07C446.667 123.493 445.808 124.786 444.723 125.877C443.656 126.995 442.365 127.876 440.932 128.46C439.5 129.045 437.96 129.32 436.414 129.268H404.311V157.901H463.229V179H381.273ZM438.302 44.8733L451.521 60.3205H434.525L422.062 46.7571L413.753 55.7994L409.221 59.1902C407.474 60.0842 405.513 60.4756 403.556 60.3205H393.736L406.955 44.8733C408.645 42.3197 410.945 40.2253 413.648 38.7785C416.351 37.3316 419.372 36.5777 422.44 36.5846C425.553 36.613 428.615 37.3794 431.373 38.8205C434.131 40.2617 436.506 42.3363 438.302 44.8733ZM483.246 20.0072L458.319 46.0036H444.723L456.431 24.9051L459.074 21.891C460.811 20.588 462.946 19.9226 465.117 20.0072H483.246ZM478.714 179V78.0282C478.683 76.453 479.006 74.8908 479.659 73.4565C480.313 72.0221 481.28 70.7521 482.49 69.7395C484.724 67.5394 487.669 66.2039 490.799 65.9719H503.263L548.962 143.585V65.9719H572V179H548.206L501.752 101.387V179H478.714Z" fill="#0A9DD9"/>
<path d="M624 179V77.16C624.125 73.9838 625.49 70.9829 627.802 68.8C630.051 66.581 633.016 65.2339 636.167 65H658.981L681.414 152.02L703.847 65H738.448V179H716.775V87.04L693.581 179H669.627L646.053 87.04V179H624ZM754.037 179V77.16C754.029 75.61 754.327 74.0738 754.914 72.6392C755.501 71.2046 756.366 69.9 757.459 68.8C758.617 67.6794 759.987 66.7999 761.488 66.2128C762.989 65.6257 764.592 65.3426 766.204 65.38H777.611V179H754.037ZM793.2 179V77.16C793.192 75.61 793.49 74.0738 794.077 72.6392C794.664 71.2046 795.529 69.9 796.622 68.8C798.906 66.6333 801.851 65.2953 804.987 65H817.534L863.922 143.28V65H887.115V179H862.781L816.393 100.72V179H793.2ZM902.704 179V77.16C902.652 75.604 902.929 74.0545 903.519 72.6135C904.109 71.1725 904.998 69.8728 906.126 68.8C907.227 67.708 908.532 66.8438 909.968 66.2569C911.403 65.67 912.94 65.3721 914.491 65.38H926.278V107.56H973.046V65.38H997V179H973.046V128.46H926.278V179H902.704Z" fill="#BE1E2D"/>
</g>
<defs>
<clipPath id="clip0_254_2908">
<rect width="997" height="198" fill="white"/>
</clipPath>
</defs>
</svg>
