<svg id="Layer_1" data-name="Layer 1" xmlns="http://www.w3.org/2000/svg" viewBox="0 0 200 200"><defs><style>.cls-1{fill:#0a9dd9;}.cls-2{fill:#be1e2d;}.cls-3{fill:#fff;}</style></defs><title>logo-TM</title><path class="cls-1" d="M8.9,196.5V171.9H0v-2.2a3.1,3.1,0,0,1,3.1-3.1H23.8v5.3H15v24.6Zm19,0V169.7a3.1,3.1,0,0,1,.9-2.2,3.2,3.2,0,0,1,2.3-.9h3v29.9Zm10.3,0V169.7a3.1,3.1,0,0,1,3.1-3.1H59.9v5.1H44.3v6.5H55.9v2a3.1,3.1,0,0,1-.9,2.2,2.9,2.9,0,0,1-2.2.9H44.3v7.6H59.9v5.6Zm15.1-35.6,3.5,4.1H52.3L49,161.4l-2.2,2.4-1.2.9a2.8,2.8,0,0,1-1.5.3H41.5l3.5-4.1a4.9,4.9,0,0,1,4.1-2.2A5.2,5.2,0,0,1,53.3,160.9Zm11.9-6.6-6.6,6.9H55l3.1-5.6.7-.8a2.5,2.5,0,0,1,1.6-.5ZM64,196.5V169.7a2.8,2.8,0,0,1,1-2.2,3.5,3.5,0,0,1,2.2-1h3.3l12.1,20.6V166.5h6.1v30H82.4L70.1,175.9v20.6Z"/><path class="cls-2" d="M102.1,196.5V169.7a3.2,3.2,0,0,1,1-2.2,3.5,3.5,0,0,1,2.2-1h6l5.9,22.9,5.9-22.9h9.1v30h-5.7V172.3l-6.1,24.2h-6.3l-6.2-24.2v24.2Zm34.2,0V169.7a3.1,3.1,0,0,1,.9-2.2,3.2,3.2,0,0,1,2.3-.9h3v29.9Zm10.3,0V169.7a3.1,3.1,0,0,1,.9-2.2,3.7,3.7,0,0,1,2.2-1H153l12.2,20.6V166.5h6.1v30h-6.4l-12.2-20.6v20.6Zm28.8,0V169.7a2.9,2.9,0,0,1,.9-2.2,3.1,3.1,0,0,1,2.2-.9h3.1v11.1h12.3V166.6h6.3v29.9h-6.3V183.2H181.6v13.3Z"/><path class="cls-3" d="M100.1,102.9a9.4,9.4,0,0,1-9.4-9.4V83a9,9,0,0,0-9-9H71.5a9.4,9.4,0,0,1-9.4-9.4v-.3A9.4,9.4,0,0,1,71.5,55h38V93.5A9.4,9.4,0,0,1,100.1,102.9Z"/><path class="cls-1" d="M109.3,60.6a5.5,5.5,0,0,1-5.5-5.5V50H71.5A14.3,14.3,0,0,0,57.1,64.3v.3A14.3,14.3,0,0,0,71.5,78.9H85.8V93.5a14.3,14.3,0,0,0,14.3,14.3h0a14.3,14.3,0,0,0,14.3-14.3V60.6Zm-4.8,18.3V93.3a4.6,4.6,0,0,1-4,4.6,4.4,4.4,0,0,1-4.9-4.4V69.1H71.5A4.5,4.5,0,0,1,67,64.6v-.3a4.5,4.5,0,0,1,4.5-4.4h33Z"/><path class="cls-1" d="M84,91.6v-11H73.1A1.5,1.5,0,0,0,71.6,82h0a1.5,1.5,0,0,0,1.5,1.5h8v8.1a1.4,1.4,0,0,0,1.6,1.5A1.5,1.5,0,0,0,84,91.6Z"/><path class="cls-1" d="M133.4,116.3a.9.9,0,0,0,.3-1.2c-.3-.5-.8-.4-1.3-.2a5.6,5.6,0,0,0-1.7.9,74.9,74.9,0,0,1-12.3,7l-.7.4c-.2.2-.3.5.1.6A12.4,12.4,0,0,0,121,125a2.2,2.2,0,0,0,1.4-.5,80.9,80.9,0,0,0,7.7-5.3C131.3,118.3,132.3,117.3,133.4,116.3Z"/><path class="cls-1" d="M125.6,116.6c.4-.2.8-.5.6-1.1s-.6-.5-1.2-.5l-1.4.6-3.9,1.7-7.7,2.9c-.5.2-1.1.3-.6,1s2.8,1.1,3.6.8l5.9-2.6C122.5,118.5,124.1,117.6,125.6,116.6Z"/><path class="cls-1" d="M141.4,112.9a4.5,4.5,0,0,0-2.5,1.4c-1.7,1.5-3.3,3.1-5.1,4.6a56.9,56.9,0,0,1-8.4,6.2c-.3.3-.8.4-.7.9s.6.4,1,.6l2.9.7a2.4,2.4,0,0,0,2.3-.5A53.1,53.1,0,0,0,142,115.7a4.8,4.8,0,0,0,.7-1.8C142.6,113.2,142.3,112.8,141.4,112.9Z"/><path class="cls-1" d="M100.1,2.5A75.5,75.5,0,1,0,175.6,78,75.6,75.6,0,0,0,100.1,2.5Zm52.2,109a1.8,1.8,0,0,0-2.1.1,17.7,17.7,0,0,0-3,3.1,70.7,70.7,0,0,1-17.1,16.1,37.9,37.9,0,0,1-12.5,5.5,27.1,27.1,0,0,1-14.4-1,37,37,0,0,1-14.8-8.7,4.3,4.3,0,0,1-.9-1.3c1,0,1.6.6,2.4.9a58.1,58.1,0,0,0,15.7,5.8,35.1,35.1,0,0,0,18.7-1.4c.4-.2,1-.3,1-.8s-.7-.5-1-.6c-7-2.4-14.1-4.3-21-6.9a61.6,61.6,0,0,1-11.5-5.7c-7.5-4.5-15.2-4.4-23.2-1.4-4.9,1.8-9.1,4.8-13.2,8-2.1,1.7-1.5,1.7-3.2-.1A64.9,64.9,0,0,1,35.5,90.8a66.5,66.5,0,0,1-.7-20.4A63.8,63.8,0,0,1,46,40.6,65.8,65.8,0,0,1,81.8,14.8a65.9,65.9,0,0,1,60.1,12.5,64.3,64.3,0,0,1,16.6,20.4,62.8,62.8,0,0,1,6.8,21.9,65.1,65.1,0,0,1-8.8,42.2c-1.1,1.8-2.3,3.6-3.5,5.4l-1.2,1.5c.5-1.8.9-3.6,1.2-5.3A1.7,1.7,0,0,0,152.3,111.5Z"/><path class="cls-2" d="M85.8,49.2h9.8V35.6a4.6,4.6,0,0,1,4-4.6,4.4,4.4,0,0,1,4.9,4.4V55.1a4.8,4.8,0,0,0,4.8,4.8h19.4a4.5,4.5,0,0,1,4.5,4.4v.3a4.5,4.5,0,0,1-4.5,4.5H115.1v9.8h13.6A14.3,14.3,0,0,0,143,64.6v-.3A14.3,14.3,0,0,0,128.7,50H116.3a1.9,1.9,0,0,1-1.9-1.9V35.4a14.3,14.3,0,0,0-14.3-14.3h0A14.3,14.3,0,0,0,85.8,35.4"/></svg>