<?xml version="1.0" encoding="UTF-8"?>
<svg id="Layer_1" data-name="Layer 1" xmlns="http://www.w3.org/2000/svg" viewBox="0 0 560 109.07">
  <defs>
    <style>
      .cls-1 {
        fill: #c62127;
      }

      .cls-1, .cls-2, .cls-3 {
        fill-rule: evenodd;
      }

      .cls-1, .cls-2, .cls-3, .cls-4, .cls-5 {
        stroke-width: 0px;
      }

      .cls-2 {
        fill: #df1e26;
      }

      .cls-3, .cls-4 {
        fill: #009edb;
      }

      .cls-5 {
        fill: #51b548;
      }
    </style>
  </defs>
  <path class="cls-1" d="M50.16,94.72c-25.25-3.88-36.5-25.18-36.5-41.16.57-15.92,5.28-20.93,10.34-28.14l4.04,9.7c-3.48,5.26-5.5,11.56-5.5,18.34,0,14.14,8.98,25.89,21.41,30.73,2,.78,3.25,2.55,4,4.56l2.21,5.97ZM61.18,86.14l4.44,12.07c20.91-4.4,36.61-22.96,36.61-45.18,0-13.67-5.95-25.95-15.39-34.41l-18.1,47.95c1.79,4.92,3.39,9.33,5.17,14.25,9.07-5.95,14.78-16.07,15.04-27.31.15-6.57-1.7-12.75-4.99-17.91l3.82-9.84c6.25,7.32,9.56,15.29,9.97,27.7.16,17.65-12.58,34.97-29.85,40.16l-4.59-13.03-2.13,5.55ZM82.07,3.37c15.51,9.51,28.5,22.21,29.68,49.65,1.18,27.44-23.15,54.46-52.74,55.99h0l-3.66-9.81L25.05,18.17c-9.44,8.45-15.75,21.18-15.75,34.85,0,20.81,14.21,38.74,33.13,44.51,5.56,1.7,9.76,5.19,11.79,10.64l.34.9C24.3,108.28,0,83.5,0,53.04,0,31.54,12.11,12.87,29.87,3.47l3.6,9.3s-.03.02-.05.03l22.59,59.35,4.6-11.94L82.07,3.37ZM33.7,1.48l19,50.34c.18.76.42,1.52.71,2.28l1.93,5.12c.34.9.62,1.79.84,2.69l.17-.44.05.13c.07-.31.16-.61.25-.92L78.84,1.98c-.79-.35-1.59-.67-2.4-.98-1.87-.71-3.73-.66-5.55.16-1.82.82-3.1,2.17-3.8,4.04l-10.75,28.36-10.89-28.86c-.71-1.87-1.98-3.22-3.8-4.04-1.82-.82-3.68-.87-5.55-.16-.81.31-1.61.64-2.4.98Z"/>
  <g>
    <path class="cls-2" d="M322.47,40.63c4.95,0,8.12-3.37,8.12-7.52-.1-4.36-3.17-7.62-8.02-7.62s-8.02,3.27-7.92,7.62c-.1,4.15,3.07,7.52,7.82,7.52"/>
    <path class="cls-5" d="M559.34,42.15c-8.46-2.32-14.51,2.15-17.87,8.52-3.84,8.36-5.13,17.47-7.33,26.35l.31-.63c5.55-12.65,13.26-23.11,17.39-26.83-7.6,9.24-13.17,19.92-16.63,28.43h0c9.11-11.43,28.63-19.11,24.13-35.84"/>
    <path class="cls-4" d="M191.89,94.97h15.04V24.59h-21.41l-11.97,48.02h-.3l-11.95-48.02-21.41.13v70.37c5.12-.04,10.03.05,15.04.01l-.12-48.97h.2l11.63,47.75h11.78l13.22-47.75h.3l-.05,48.84Z"/>
    <path class="cls-4" d="M294.63,73.39c0,1.29-.1,2.38-.4,3.46-.89,4.26-4.36,7.23-8.71,7.23-6.24,0-10.29-5.15-10.29-13.36,0-7.62,3.56-13.76,10.39-13.76,4.65,0,7.92,3.37,8.81,7.42.1.79.2,1.88.2,2.67v6.34h0ZM294.63,24.59v26.33h-.2c-2.18-3.37-6.83-5.44-12.77-5.44-11.58,0-21.78,9.4-21.68,25.74,0,15.04,9.2,24.84,20.69,24.84,6.24,0,12.08-2.77,15.14-8.22h.2l.69,7.13h12.97V24.59h-15.04Z"/>
    <path class="cls-4" d="M330.09,94.97v-42.77c0-5.77-4.71-10.48-10.48-10.48h-4.56v53.25h15.04Z"/>
    <path class="cls-3" d="M335.77,94.97h37.54c-2.03-1.62-3.71-3.71-4.89-6.26-.93-2.02-1.47-4.19-1.6-6.41h-15.9V24.48h-15.14v70.49h0Z"/>
    <path class="cls-4" d="M398.58,77.35c0,.89-.1,1.78-.3,2.57-.99,3.07-4.06,5.54-7.82,5.54-3.37,0-5.94-1.88-5.94-5.74,0-5.84,6.14-7.72,14.06-7.62v5.25ZM413.23,66.36c0-11.38-5.15-20.89-21.28-20.89-8.81,0-15.44,2.38-18.81,4.26l2.77,9.7c3.17-1.98,8.41-3.66,13.36-3.66,7.42,0,8.81,3.66,8.81,6.24v.69c-17.12-.1-28.41,5.94-28.41,18.51,0,7.72,5.84,14.85,15.64,14.85,5.74,0,10.69-2.08,13.86-5.94h.3l.89,4.85h12.87v-28.61h0Z"/>
    <path class="cls-4" d="M434.36,67.26c0-.99.1-1.88.3-2.77.99-4.36,4.75-7.42,8.81-7.42,7.03,0,10.39,5.94,10.39,13.46,0,8.71-3.96,13.66-10.39,13.66-4.36,0-7.82-3.07-8.81-7.13-.2-.79-.3-1.68-.3-2.67v-7.13ZM419.31,80.52v14.46h12.37l.59-6.73h.2c3.46,5.74,8.91,7.82,14.55,7.82,11.09,0,22.17-8.71,22.17-26.13.1-14.85-8.41-24.45-19.99-24.45-6.73,0-11.78,2.67-14.65,6.83h-.2v-27.73h-15.05v55.93h0Z"/>
    <path class="cls-4" d="M523.4,70.23c0,17.72-12.57,25.83-25.54,25.83-14.15,0-25.04-9.3-25.04-24.94s10.29-25.64,25.83-25.64c14.85,0,24.75,10.2,24.75,24.75ZM488.36,70.72c0,8.31,3.46,14.55,9.9,14.55,5.84,0,9.6-5.84,9.6-14.55,0-7.23-2.77-14.55-9.6-14.55-7.23,0-9.9,7.42-9.9,14.55Z"/>
    <path class="cls-4" d="M527.42,94.61h15.04v-21.08c-2.06,1.84-4,3.73-5.61,5.76-.55.69-1.42.96-2.26.7-1.1-.34-2.83-2.11-2.49-3.48,2.24-9.01,3.55-18.2,7.46-26.72.02-.04.03-.07.05-.1.17-.32.34-.62.52-.93l-.14-2.55h-12.97c.2,4.16.4,8.81.4,15.94v32.46h0Z"/>
    <path class="cls-4" d="M225.22,75.57c.5,6.24,6.63,9.2,13.66,9.2,5.15,0,9.3-.69,13.36-1.98l1.98,10.19c-4.95,1.98-10.99,2.97-17.52,2.97-16.43,0-25.83-9.5-25.83-24.65,0-12.27,7.62-25.83,24.45-25.83,15.64,0,21.58,12.17,21.58,24.15,0,2.57-.3,4.85-.49,5.94h-31.19ZM242.94,65.28c0-3.66-1.58-9.8-8.51-9.8-6.33,0-8.91,5.74-9.3,9.8h17.81Z"/>
  </g>
</svg>